<?xml version="1.0" encoding="utf-8"?>
<!-- Generator: Adobe Illustrator 16.0.0, SVG Export Plug-In . SVG Version: 6.00 Build 0)  -->
<!DOCTYPE svg PUBLIC "-//W3C//DTD SVG 1.1//EN" "http://www.w3.org/Graphics/SVG/1.1/DTD/svg11.dtd">
<svg version="1.1" id="Layer_1" xmlns="http://www.w3.org/2000/svg" xmlns:xlink="http://www.w3.org/1999/xlink" x="0px" y="0px"
	 width="1368.985px" height="400.219px" viewBox="0 0 1368.985 400.219" enable-background="new 0 0 1368.985 400.219"
	 xml:space="preserve">
<g id="art">
	<g>
		
			<linearGradient id="SVGID_1_" gradientUnits="userSpaceOnUse" x1="318.8052" y1="21.1182" x2="357.0898" y2="21.1182" gradientTransform="matrix(1 0 0 -1 -56 255.2188)">
			<stop  offset="0" style="stop-color:#195A91"/>
			<stop  offset="0.3214" style="stop-color:#005CAF"/>
		</linearGradient>
		<polygon fill="url(#SVGID_1_)" points="301.09,90.498 296.064,393.333 274.33,384.678 264.551,375.755 262.805,369.316 
			266.133,77.678 266.018,74.868 293.689,84.833 		"/>
		
			<linearGradient id="SVGID_2_" gradientUnits="userSpaceOnUse" x1="349.5039" y1="16.9536" x2="405.1543" y2="16.9536" gradientTransform="matrix(1 0 0 -1 -56 255.2188)">
			<stop  offset="0" style="stop-color:#0035AD"/>
			<stop  offset="0.5306" style="stop-color:#004CAF"/>
			<stop  offset="1" style="stop-color:#172D75"/>
		</linearGradient>
		<polygon fill="url(#SVGID_2_)" points="298.145,90.639 293.504,393.614 330.439,393.614 345.283,389.975 347.164,384.748 
			349.154,82.916 321.328,87.921 		"/>
		
			<linearGradient id="SVGID_3_" gradientUnits="userSpaceOnUse" x1="438.3066" y1="-45.5684" x2="507.8063" y2="232.9312" gradientTransform="matrix(1 0 0 -1 -56 255.2188)">
			<stop  offset="0.2268" style="stop-color:#0030AC"/>
			<stop  offset="1" style="stop-color:#0067AE"/>
		</linearGradient>
		<polygon fill="url(#SVGID_3_)" points="348.529,77.678 346.508,394.833 470.003,307.833 474.003,17.166 		"/>
		
			<linearGradient id="SVGID_4_" gradientUnits="userSpaceOnUse" x1="362.5635" y1="159.5601" x2="362.5635" y2="193.0918" gradientTransform="matrix(1 0 0 -1 -56 255.2188)">
			<stop  offset="0" style="stop-color:#001BA7"/>
			<stop  offset="0.094" style="stop-color:#0029A8"/>
			<stop  offset="0.3144" style="stop-color:#0044AB"/>
			<stop  offset="0.5382" style="stop-color:#0058AD"/>
			<stop  offset="0.7651" style="stop-color:#0063AE"/>
			<stop  offset="1" style="stop-color:#0067AE"/>
		</linearGradient>
		<path fill="url(#SVGID_4_)" d="M264.9,62.127c0,0,18.096,14.687,36.189,17.937c0,0,20.928,6.401,46.754-1.998l0.385,12.101
			c0,0-16.225,10.167-50.225,2.834c0,0-18.77-4.882-31.885-14.107L264.9,62.127z"/>
		
			<linearGradient id="SVGID_5_" gradientUnits="userSpaceOnUse" x1="320.8999" y1="224.1553" x2="463.0039" y2="224.1553" gradientTransform="matrix(1 0 0 -1 -56 255.2188)">
			<stop  offset="0" style="stop-color:#004EAE"/>
			<stop  offset="1" style="stop-color:#0073AF"/>
		</linearGradient>
		<path fill="url(#SVGID_5_)" d="M264.9,62.127c0,0,0.604-6.794,2.729-8.669L399.172,0l7.832,1.333l-135,56L264.9,62.127z"/>
		<path fill="#0073AF" d="M405.884,7.962l3.117-1.549v7.42C409.001,13.833,407.001,11.226,405.884,7.962z"/>
		
			<linearGradient id="SVGID_6_" gradientUnits="userSpaceOnUse" x1="328.397" y1="224.7256" x2="465.001" y2="224.7256" gradientTransform="matrix(1 0 0 -1 -56 255.2188)">
			<stop  offset="0" style="stop-color:#0025AB"/>
			<stop  offset="1" style="stop-color:#0073AF"/>
		</linearGradient>
		<polygon fill="url(#SVGID_6_)" points="272.397,57.333 409.001,1.042 409.001,6.576 275.924,59.944 		"/>
		
			<linearGradient id="SVGID_7_" gradientUnits="userSpaceOnUse" x1="401.3379" y1="208.3799" x2="530.0029" y2="208.3799" gradientTransform="matrix(1 0 0 -1 -56 255.2188)">
			<stop  offset="0" style="stop-color:#0025AB"/>
			<stop  offset="0.3151" style="stop-color:#0028AB"/>
			<stop  offset="0.5095" style="stop-color:#0030AC"/>
			<stop  offset="0.6711" style="stop-color:#003FAC"/>
			<stop  offset="0.8148" style="stop-color:#0053AD"/>
			<stop  offset="0.9454" style="stop-color:#006DAF"/>
			<stop  offset="0.9691" style="stop-color:#0073AF"/>
		</linearGradient>
		<polygon fill="url(#SVGID_7_)" points="345.338,71.666 348.529,77.678 474.003,17.166 462.671,16 		"/>
		<path fill="#001BA7" d="M262.654,321.316c0,0,0.078-0.489,0.945,0c3.324,1.881,11.928,7.272,12.838,7.725
			c3.877,1.92,8.838,5.068,16.934,7.014c7.119,1.711,16.104,4.239,32.883,3.188c6.342-0.396,12.422-1.533,19.75-4.482l-0.186,11.312
			c0,0-13.875,11.991-51.73,3.265c0,0-15.855-2.148-31.568-15.08L262.654,321.316z"/>
		
			<linearGradient id="SVGID_8_" gradientUnits="userSpaceOnUse" x1="384.001" y1="-87.6396" x2="406.5864" y2="-87.6396" gradientTransform="matrix(1 0 0 -1 -56 255.2188)">
			<stop  offset="0" style="stop-color:#EDEE00"/>
			<stop  offset="1" style="stop-color:#DAB300"/>
		</linearGradient>
		<path fill="url(#SVGID_8_)" d="M328.001,340.333c0,0,12.263-0.948,18.888-5.574c0,0,5.551,4.449,3.051,8.699
			c0,0-1.938,5.875-21.938,7.5V340.333z"/>
		
			<linearGradient id="SVGID_9_" gradientUnits="userSpaceOnUse" x1="349.2109" y1="-88.918" x2="382.2539" y2="-88.918" gradientTransform="matrix(1 0 0 -1 -56 255.2188)">
			<stop  offset="0" style="stop-color:#AE951D"/>
			<stop  offset="1" style="stop-color:#D1AA09"/>
		</linearGradient>
		<path fill="url(#SVGID_9_)" d="M326.254,340.333c0,0-19.881,0.836-32.881-3.271l-0.162,10.586c0,0,14.168,4.685,32.918,3.31"/>
		
			<linearGradient id="SVGID_10_" gradientUnits="userSpaceOnUse" x1="317.0532" y1="-79.2637" x2="349.373" y2="-79.2637" gradientTransform="matrix(1 0 0 -1 -56 255.2188)">
			<stop  offset="0" style="stop-color:#F5F34B"/>
			<stop  offset="0.1018" style="stop-color:#F5F24E"/>
			<stop  offset="0.1805" style="stop-color:#F5F058"/>
			<stop  offset="0.2512" style="stop-color:#F5EB68"/>
			<stop  offset="0.27" style="stop-color:#F5EA6E"/>
			<stop  offset="0.2762" style="stop-color:#EDE059"/>
			<stop  offset="0.286" style="stop-color:#E3D33E"/>
			<stop  offset="0.2972" style="stop-color:#DBC828"/>
			<stop  offset="0.3104" style="stop-color:#D5C017"/>
			<stop  offset="0.3267" style="stop-color:#D0BA0C"/>
			<stop  offset="0.3495" style="stop-color:#CEB705"/>
			<stop  offset="0.4129" style="stop-color:#CDB603"/>
			<stop  offset="0.4216" style="stop-color:#CEB903"/>
			<stop  offset="0.4871" style="stop-color:#D2CA02"/>
			<stop  offset="0.5683" style="stop-color:#D5D501"/>
			<stop  offset="0.6826" style="stop-color:#D7DC00"/>
			<stop  offset="1" style="stop-color:#D7DE00"/>
		</linearGradient>
		<path fill="url(#SVGID_10_)" d="M293.373,337.062c0,0-11.219-1.871-30.719-15.746c0,0-3.51,3.031-0.135,11.156
			c0,0,9.691,10.426,30.691,15.176L293.373,337.062z"/>
		<path fill="#001BA7" d="M261.004,368.417c0,0,20.098,20.853,59.4,19.987c4.684-0.104,7.813,0.017,12.707-1.047
			c3.274-0.713,8.098-2.321,11.893-3.523l0.504,9.309c0,0-14.92-0.744-52.42,1.713c0,0-14.996-0.522-31.959-13.771L261.004,368.417z
			"/>
		
			<linearGradient id="SVGID_11_" gradientUnits="userSpaceOnUse" x1="383.001" y1="-136.6772" x2="405.6084" y2="-136.6772" gradientTransform="matrix(1 0 0 -1 -56 255.2188)">
			<stop  offset="0" style="stop-color:#EDEE00"/>
			<stop  offset="1" style="stop-color:#DAB300"/>
		</linearGradient>
		<path fill="url(#SVGID_11_)" d="M327.001,389.333c0,0,12.501-0.873,19.126-5.499c0,0,5.312,4.374,2.812,8.624
			c0,0-1.938,5.875-21.938,7.5V389.333L327.001,389.333z"/>
		
			<linearGradient id="SVGID_12_" gradientUnits="userSpaceOnUse" x1="351.001" y1="-137.9219" x2="382.627" y2="-137.9219" gradientTransform="matrix(1 0 0 -1 -56 255.2188)">
			<stop  offset="0" style="stop-color:#AE951D"/>
			<stop  offset="1" style="stop-color:#D1AA09"/>
		</linearGradient>
		<path fill="url(#SVGID_12_)" d="M326.252,389.333c0,0-18.251,0.836-31.251-3.271v10.771c0,0,12.876,4.5,31.626,3.125"/>
		
			<linearGradient id="SVGID_13_" gradientUnits="userSpaceOnUse" x1="317.0229" y1="-128.2393" x2="351.001" y2="-128.2393" gradientTransform="matrix(1 0 0 -1 -56 255.2188)">
			<stop  offset="0" style="stop-color:#F5F34B"/>
			<stop  offset="0.1018" style="stop-color:#F5F24E"/>
			<stop  offset="0.1805" style="stop-color:#F5F058"/>
			<stop  offset="0.2512" style="stop-color:#F5EB68"/>
			<stop  offset="0.27" style="stop-color:#F5EA6E"/>
			<stop  offset="0.2762" style="stop-color:#EDE059"/>
			<stop  offset="0.286" style="stop-color:#E3D33E"/>
			<stop  offset="0.2972" style="stop-color:#DBC828"/>
			<stop  offset="0.3104" style="stop-color:#D5C017"/>
			<stop  offset="0.3267" style="stop-color:#D0BA0C"/>
			<stop  offset="0.3495" style="stop-color:#CEB705"/>
			<stop  offset="0.4129" style="stop-color:#CDB603"/>
			<stop  offset="0.4216" style="stop-color:#CEB903"/>
			<stop  offset="0.4871" style="stop-color:#D2CA02"/>
			<stop  offset="0.5683" style="stop-color:#D5D501"/>
			<stop  offset="0.6826" style="stop-color:#D7DC00"/>
			<stop  offset="1" style="stop-color:#D7DE00"/>
		</linearGradient>
		<path fill="url(#SVGID_13_)" d="M295.001,386.062c0,0-13.249-2.104-32.749-15.979c0,0-3,2.875,0.375,11
			c0,0,11.374,11,32.374,15.75V386.062z"/>
		<path fill="#001BA7" d="M265.74,112.017c0,0,23.598,18.225,50.598,18.225c0,0,16.943,1.202,31.887-4.697l-1.071,12.323
			c0,0-37.812,18.651-81.568-12.179L265.74,112.017z"/>
		
			<linearGradient id="SVGID_14_" gradientUnits="userSpaceOnUse" x1="386.001" y1="121.3291" x2="407.688" y2="121.3291" gradientTransform="matrix(1 0 0 -1 -56 255.2188)">
			<stop  offset="0" style="stop-color:#EDEE00"/>
			<stop  offset="1" style="stop-color:#DAB300"/>
		</linearGradient>
		<path fill="url(#SVGID_14_)" d="M330.001,131.333c0,0,12.597-0.886,19.222-5.512c0,0,3.433,4.387,2.197,8.637
			c0,0-1.419,5.875-21.419,7.5V131.333z"/>
		
			<linearGradient id="SVGID_15_" gradientUnits="userSpaceOnUse" x1="351.2109" y1="120.082" x2="384.2539" y2="120.082" gradientTransform="matrix(1 0 0 -1 -56 255.2188)">
			<stop  offset="0" style="stop-color:#AE951D"/>
			<stop  offset="1" style="stop-color:#D1AA09"/>
		</linearGradient>
		<path fill="url(#SVGID_15_)" d="M328.254,131.333c0,0-19.881,0.836-32.881-3.27l-0.162,10.586c0,0,14.168,4.684,32.918,3.309"/>
		
			<linearGradient id="SVGID_16_" gradientUnits="userSpaceOnUse" x1="321.0151" y1="129.3975" x2="355.001" y2="129.3975" gradientTransform="matrix(1 0 0 -1 -56 255.2188)">
			<stop  offset="0" style="stop-color:#F5F34B"/>
			<stop  offset="0.1018" style="stop-color:#F5F24E"/>
			<stop  offset="0.1805" style="stop-color:#F5F058"/>
			<stop  offset="0.2512" style="stop-color:#F5EB68"/>
			<stop  offset="0.27" style="stop-color:#F5EA6E"/>
			<stop  offset="0.2762" style="stop-color:#EDE059"/>
			<stop  offset="0.286" style="stop-color:#E3D33E"/>
			<stop  offset="0.2972" style="stop-color:#DBC828"/>
			<stop  offset="0.3104" style="stop-color:#D5C017"/>
			<stop  offset="0.3267" style="stop-color:#D0BA0C"/>
			<stop  offset="0.3495" style="stop-color:#CEB705"/>
			<stop  offset="0.4129" style="stop-color:#CDB603"/>
			<stop  offset="0.4216" style="stop-color:#CEB903"/>
			<stop  offset="0.4871" style="stop-color:#D2CA02"/>
			<stop  offset="0.5683" style="stop-color:#D5D501"/>
			<stop  offset="0.6826" style="stop-color:#D7DC00"/>
			<stop  offset="1" style="stop-color:#D7DE00"/>
		</linearGradient>
		<path fill="url(#SVGID_16_)" d="M299.001,128.411c0,0-12.768-1.935-32.268-15.81c0,0-3.664,2.634-0.289,10.759
			c0,0,11.557,10.931,32.557,15.681V128.411z"/>
		
			<linearGradient id="SVGID_17_" gradientUnits="userSpaceOnUse" x1="320.8999" y1="185.1118" x2="404.5293" y2="185.1118" gradientTransform="matrix(1 0 0 -1 -56 255.2188)">
			<stop  offset="0" style="stop-color:#004EAE"/>
			<stop  offset="1" style="stop-color:#0025AB"/>
		</linearGradient>
		<path fill="url(#SVGID_17_)" d="M345.338,71.666c0,0-50.584,9.167-73.334-14.333l-7.104,4.794c0,0,12.104,12.956,30.604,17.706
			c0,0,17,3.493,32,3c0,0,17.492-1.621,21.025-5.155L345.338,71.666z"/>
		
			<linearGradient id="SVGID_18_" gradientUnits="userSpaceOnUse" x1="386.001" y1="169.207" x2="408.127" y2="169.207" gradientTransform="matrix(1 0 0 -1 -56 255.2188)">
			<stop  offset="0" style="stop-color:#EDEE00"/>
			<stop  offset="1" style="stop-color:#DAB300"/>
		</linearGradient>
		<path fill="url(#SVGID_18_)" d="M330.001,83.333c0,0,12.126-0.642,18.843-5.268c0,0,4.308,4.143,3.055,8.393
			c0,0-0.897,5.875-21.897,7.5V83.333L330.001,83.333z"/>
		
			<linearGradient id="SVGID_19_" gradientUnits="userSpaceOnUse" x1="351.4551" y1="168.082" x2="384.957" y2="168.082" gradientTransform="matrix(1 0 0 -1 -56 255.2188)">
			<stop  offset="0" style="stop-color:#AE951D"/>
			<stop  offset="1" style="stop-color:#D1AA09"/>
		</linearGradient>
		<path fill="url(#SVGID_19_)" d="M328.957,83.333c0,0-20.156,0.836-33.336-3.27l-0.166,10.586c0,0,14.365,4.684,33.375,3.309"/>
		
			<linearGradient id="SVGID_20_" gradientUnits="userSpaceOnUse" x1="320.2275" y1="177.8911" x2="355.001" y2="177.8911" gradientTransform="matrix(1 0 0 -1 -56 255.2188)">
			<stop  offset="0" style="stop-color:#F5F34B"/>
			<stop  offset="0.1018" style="stop-color:#F5F24E"/>
			<stop  offset="0.1805" style="stop-color:#F5F058"/>
			<stop  offset="0.2512" style="stop-color:#F5EB68"/>
			<stop  offset="0.27" style="stop-color:#F5EA6E"/>
			<stop  offset="0.2762" style="stop-color:#EDE059"/>
			<stop  offset="0.286" style="stop-color:#E3D33E"/>
			<stop  offset="0.2972" style="stop-color:#DBC828"/>
			<stop  offset="0.3104" style="stop-color:#D5C017"/>
			<stop  offset="0.3267" style="stop-color:#D0BA0C"/>
			<stop  offset="0.3495" style="stop-color:#CEB705"/>
			<stop  offset="0.4129" style="stop-color:#CDB603"/>
			<stop  offset="0.4216" style="stop-color:#CEB903"/>
			<stop  offset="0.4871" style="stop-color:#D2CA02"/>
			<stop  offset="0.5683" style="stop-color:#D5D501"/>
			<stop  offset="0.6826" style="stop-color:#D7DC00"/>
			<stop  offset="1" style="stop-color:#D7DE00"/>
		</linearGradient>
		<path fill="url(#SVGID_20_)" d="M299.001,80.411c0,0-6.645-0.929-15.938-5.786c-4.783-2.501-10.78-6.296-17.499-11.011
			c0,0-3.169,3.621,0.252,11.746c0,0,12.184,10.931,33.184,15.681L299.001,80.411L299.001,80.411z"/>
		<path fill="#FCF2BB" stroke="#AB941E" stroke-width="0.25" stroke-miterlimit="10" d="M274.801,59.944L404.879,7.583
			c0,0-1.897,16.712,45.8,14.105L345.338,71.666C345.338,71.666,299.848,81.306,274.801,59.944z"/>
		<path fill="#009AFC" d="M280.289,57.735c0,0,11.184,15.564,56.34,10.439l2.963-0.236L443.093,21.96l7.586-0.271L345.338,71.916
			c0,0-47.408,9.294-70.537-11.972L280.289,57.735z"/>
	</g>
</g>
<g id="text">
	<g>
		
			<text transform="matrix(1 0 0 1 4.882812e-04 315.3242)" font-family="'PathwayGothicOne-Book'" font-size="315" letter-spacing="-14">SD</text>
	</g>
	<g>
		
			<text transform="matrix(1 0 0 1 944.0581 315.3242)" font-family="'PathwayGothicOne-Book'" font-size="315" letter-spacing="-14">Book</text>
	</g>
	<g>
		
			<text transform="matrix(1 0 0 1 512.6304 315.3242)" font-family="'PathwayGothicOne-Book'" font-size="315" letter-spacing="-14">Spot</text>
	</g>
</g>
</svg>
