<?xml version="1.0" encoding="utf-8"?>
<!-- Generator: Adobe Illustrator 16.0.0, SVG Export Plug-In . SVG Version: 6.00 Build 0)  -->
<!DOCTYPE svg PUBLIC "-//W3C//DTD SVG 1.1//EN" "http://www.w3.org/Graphics/SVG/1.1/DTD/svg11.dtd">
<svg version="1.1" id="Layer_1" xmlns="http://www.w3.org/2000/svg" xmlns:xlink="http://www.w3.org/1999/xlink" x="0px" y="0px"
	 width="380.871px" height="60.303px" viewBox="0 0 380.871 60.303" enable-background="new 0 0 380.871 60.303"
	 xml:space="preserve">
<g id="art">
	<g>
		
			<linearGradient id="SVGID_1_" gradientUnits="userSpaceOnUse" x1="189.3203" y1="426.0532" x2="195.0884" y2="426.0532" gradientTransform="matrix(1 0 0 1 -112 -390.7812)">
			<stop  offset="0" style="stop-color:#195A91"/>
			<stop  offset="0.3214" style="stop-color:#005CAF"/>
		</linearGradient>
		<polygon fill="url(#SVGID_1_)" points="83.088,13.636 82.331,59.265 79.056,57.96 77.583,56.617 77.32,55.645 77.821,11.705 
			77.804,11.28 81.973,12.783 		"/>
		
			<linearGradient id="SVGID_2_" gradientUnits="userSpaceOnUse" x1="193.9453" y1="426.6821" x2="202.3301" y2="426.6821" gradientTransform="matrix(1 0 0 1 -112 -390.7812)">
			<stop  offset="0" style="stop-color:#0035AD"/>
			<stop  offset="0.5306" style="stop-color:#004CAF"/>
			<stop  offset="1" style="stop-color:#172D75"/>
		</linearGradient>
		<polygon fill="url(#SVGID_2_)" points="82.644,13.658 81.945,59.308 87.511,59.308 89.747,58.759 90.03,57.972 90.33,12.494 
			86.138,13.248 		"/>
		
			<linearGradient id="SVGID_3_" gradientUnits="userSpaceOnUse" x1="207.3252" y1="436.1021" x2="217.7973" y2="394.1384" gradientTransform="matrix(1 0 0 1 -112 -390.7812)">
			<stop  offset="0.2268" style="stop-color:#0030AC"/>
			<stop  offset="1" style="stop-color:#0067AE"/>
		</linearGradient>
		<polygon fill="url(#SVGID_3_)" points="90.236,11.705 89.932,59.49 108.539,46.382 109.142,2.585 		"/>
		
			<linearGradient id="SVGID_4_" gradientUnits="userSpaceOnUse" x1="195.9136" y1="405.1948" x2="195.9136" y2="400.1411" gradientTransform="matrix(1 0 0 1 -112 -390.7812)">
			<stop  offset="0" style="stop-color:#001BA7"/>
			<stop  offset="0.094" style="stop-color:#0029A8"/>
			<stop  offset="0.3144" style="stop-color:#0044AB"/>
			<stop  offset="0.5382" style="stop-color:#0058AD"/>
			<stop  offset="0.7651" style="stop-color:#0063AE"/>
			<stop  offset="1" style="stop-color:#0067AE"/>
		</linearGradient>
		<path fill="url(#SVGID_4_)" d="M77.636,9.36c0,0,2.727,2.214,5.453,2.703c0,0,3.153,0.965,7.044-0.301l0.058,1.823
			c0,0-2.445,1.531-7.568,0.426c0,0-2.828-0.734-4.804-2.125L77.636,9.36z"/>
		
			<linearGradient id="SVGID_5_" gradientUnits="userSpaceOnUse" x1="189.6362" y1="395.4614" x2="211.0479" y2="395.4614" gradientTransform="matrix(1 0 0 1 -112 -390.7812)">
			<stop  offset="0" style="stop-color:#004EAE"/>
			<stop  offset="1" style="stop-color:#0073AF"/>
		</linearGradient>
		<path fill="url(#SVGID_5_)" d="M77.636,9.36c0,0,0.091-1.022,0.411-1.306L97.867,0l1.18,0.199L78.706,8.637L77.636,9.36z"/>
		<path fill="#0073AF" d="M98.729,1.201l0.47-0.234v1.117C99.199,2.083,98.897,1.691,98.729,1.201z"/>
		
			<linearGradient id="SVGID_6_" gradientUnits="userSpaceOnUse" x1="190.6914" y1="395.3755" x2="211.1992" y2="395.3755" gradientTransform="matrix(1 0 0 1 -112 -390.7812)">
			<stop  offset="0" style="stop-color:#0025AB"/>
			<stop  offset="1" style="stop-color:#0073AF"/>
		</linearGradient>
		<polygon fill="url(#SVGID_6_)" points="78.691,8.639 99.199,0.156 99.199,0.992 79.185,9.033 		"/>
		
			<linearGradient id="SVGID_7_" gradientUnits="userSpaceOnUse" x1="201.7549" y1="397.8394" x2="221.1416" y2="397.8394" gradientTransform="matrix(1 0 0 1 -112 -390.7812)">
			<stop  offset="0" style="stop-color:#0025AB"/>
			<stop  offset="0.3151" style="stop-color:#0028AB"/>
			<stop  offset="0.5095" style="stop-color:#0030AC"/>
			<stop  offset="0.6711" style="stop-color:#003FAC"/>
			<stop  offset="0.8148" style="stop-color:#0053AD"/>
			<stop  offset="0.9454" style="stop-color:#006DAF"/>
			<stop  offset="0.9691" style="stop-color:#0073AF"/>
		</linearGradient>
		<polygon fill="url(#SVGID_7_)" points="89.755,10.798 90.236,11.705 109.142,2.585 107.434,2.412 		"/>
		<path fill="#001BA7" d="M77.297,48.414c0,0,0.012-0.072,0.143,0c0.501,0.282,1.797,1.096,1.935,1.164
			c0.584,0.289,1.332,0.764,2.552,1.057c1.072,0.258,2.426,0.64,4.954,0.48c0.956-0.061,1.872-0.23,2.976-0.676l-0.028,1.704
			c0,0-2.091,1.808-7.795,0.492c0,0-2.389-0.323-4.756-2.272L77.297,48.414z"/>
		
			<linearGradient id="SVGID_8_" gradientUnits="userSpaceOnUse" x1="198.9932" y1="442.4399" x2="202.4375" y2="442.4399" gradientTransform="matrix(1 0 0 1 -112 -390.7812)">
			<stop  offset="0" style="stop-color:#EDEE00"/>
			<stop  offset="1" style="stop-color:#DAB300"/>
		</linearGradient>
		<path fill="url(#SVGID_8_)" d="M86.994,51.279c0,0,1.922-0.145,2.92-0.841c0,0,0.799,0.671,0.422,1.312
			c0,0-0.33,0.887-3.343,1.131L86.994,51.279L86.994,51.279z"/>
		
			<linearGradient id="SVGID_9_" gradientUnits="userSpaceOnUse" x1="193.9014" y1="442.6333" x2="198.8804" y2="442.6333" gradientTransform="matrix(1 0 0 1 -112 -390.7812)">
			<stop  offset="0" style="stop-color:#AE951D"/>
			<stop  offset="1" style="stop-color:#D1AA09"/>
		</linearGradient>
		<path fill="url(#SVGID_9_)" d="M86.88,51.279c0,0-2.996,0.125-4.954-0.492l-0.025,1.596c0,0,2.135,0.705,4.96,0.498"/>
		
			<linearGradient id="SVGID_10_" gradientUnits="userSpaceOnUse" x1="189.0562" y1="441.1792" x2="193.9263" y2="441.1792" gradientTransform="matrix(1 0 0 1 -112 -390.7812)">
			<stop  offset="0" style="stop-color:#F5F34B"/>
			<stop  offset="0.1018" style="stop-color:#F5F24E"/>
			<stop  offset="0.1805" style="stop-color:#F5F058"/>
			<stop  offset="0.2512" style="stop-color:#F5EB68"/>
			<stop  offset="0.27" style="stop-color:#F5EA6E"/>
			<stop  offset="0.2762" style="stop-color:#EDE059"/>
			<stop  offset="0.286" style="stop-color:#E3D33E"/>
			<stop  offset="0.2972" style="stop-color:#DBC828"/>
			<stop  offset="0.3104" style="stop-color:#D5C017"/>
			<stop  offset="0.3267" style="stop-color:#D0BA0C"/>
			<stop  offset="0.3495" style="stop-color:#CEB705"/>
			<stop  offset="0.4129" style="stop-color:#CDB603"/>
			<stop  offset="0.4216" style="stop-color:#CEB903"/>
			<stop  offset="0.4871" style="stop-color:#D2CA02"/>
			<stop  offset="0.5683" style="stop-color:#D5D501"/>
			<stop  offset="0.6826" style="stop-color:#D7DC00"/>
			<stop  offset="1" style="stop-color:#D7DE00"/>
		</linearGradient>
		<path fill="url(#SVGID_10_)" d="M81.926,50.787c0,0-1.691-0.281-4.629-2.373c0,0-0.529,0.457-0.02,1.682
			c0,0,1.46,1.57,4.624,2.287L81.926,50.787z"/>
		<path fill="#001BA7" d="M77.048,55.511c0,0,3.029,3.143,8.95,3.012c0.706-0.016,1.177,0.004,1.915-0.158
			c0.493-0.107,1.22-0.35,1.792-0.529l0.076,1.402c0,0-2.248-0.113-7.898,0.258c0,0-2.259-0.08-4.815-2.074L77.048,55.511z"/>
		
			<linearGradient id="SVGID_11_" gradientUnits="userSpaceOnUse" x1="198.8442" y1="449.8296" x2="202.291" y2="449.8296" gradientTransform="matrix(1 0 0 1 -112 -390.7812)">
			<stop  offset="0" style="stop-color:#EDEE00"/>
			<stop  offset="1" style="stop-color:#DAB300"/>
		</linearGradient>
		<path fill="url(#SVGID_11_)" d="M86.844,58.662c0,0,1.958-0.131,2.956-0.828c0,0,0.763,0.66,0.387,1.299
			c0,0-0.329,0.887-3.342,1.131L86.844,58.662L86.844,58.662z"/>
		
			<linearGradient id="SVGID_12_" gradientUnits="userSpaceOnUse" x1="194.022" y1="450.0171" x2="198.8242" y2="450.0171" gradientTransform="matrix(1 0 0 1 -112 -390.7812)">
			<stop  offset="0" style="stop-color:#AE951D"/>
			<stop  offset="1" style="stop-color:#D1AA09"/>
		</linearGradient>
		<path fill="url(#SVGID_12_)" d="M86.805,58.662c0,0-2.825,0.127-4.783-0.492v1.623c0,0,1.977,0.678,4.802,0.471"/>
		
			<linearGradient id="SVGID_13_" gradientUnits="userSpaceOnUse" x1="188.9507" y1="448.5591" x2="194.0229" y2="448.5591" gradientTransform="matrix(1 0 0 1 -112 -390.7812)">
			<stop  offset="0" style="stop-color:#F5F34B"/>
			<stop  offset="0.1018" style="stop-color:#F5F24E"/>
			<stop  offset="0.1805" style="stop-color:#F5F058"/>
			<stop  offset="0.2512" style="stop-color:#F5EB68"/>
			<stop  offset="0.27" style="stop-color:#F5EA6E"/>
			<stop  offset="0.2762" style="stop-color:#EDE059"/>
			<stop  offset="0.286" style="stop-color:#E3D33E"/>
			<stop  offset="0.2972" style="stop-color:#DBC828"/>
			<stop  offset="0.3104" style="stop-color:#D5C017"/>
			<stop  offset="0.3267" style="stop-color:#D0BA0C"/>
			<stop  offset="0.3495" style="stop-color:#CEB705"/>
			<stop  offset="0.4129" style="stop-color:#CDB603"/>
			<stop  offset="0.4216" style="stop-color:#CEB903"/>
			<stop  offset="0.4871" style="stop-color:#D2CA02"/>
			<stop  offset="0.5683" style="stop-color:#D5D501"/>
			<stop  offset="0.6826" style="stop-color:#D7DC00"/>
			<stop  offset="1" style="stop-color:#D7DE00"/>
		</linearGradient>
		<path fill="url(#SVGID_13_)" d="M82.022,58.169c0,0-1.922-0.316-4.86-2.407c0,0-0.489,0.433,0.02,1.657
			c0,0,1.677,1.658,4.841,2.373L82.022,58.169L82.022,58.169z"/>
		<path fill="#001BA7" d="M77.762,16.878c0,0,3.555,2.744,7.624,2.744c0,0,2.553,0.184,4.805-0.707l-0.162,1.857
			c0,0-5.697,2.811-12.291-1.836L77.762,16.878z"/>
		
			<linearGradient id="SVGID_14_" gradientUnits="userSpaceOnUse" x1="199.2949" y1="410.9556" x2="202.6025" y2="410.9556" gradientTransform="matrix(1 0 0 1 -112 -390.7812)">
			<stop  offset="0" style="stop-color:#EDEE00"/>
			<stop  offset="1" style="stop-color:#DAB300"/>
		</linearGradient>
		<path fill="url(#SVGID_14_)" d="M87.296,19.789c0,0,1.973-0.135,2.97-0.83c0,0,0.48,0.66,0.294,1.301c0,0-0.251,0.886-3.265,1.131
			v-1.602H87.296z"/>
		
			<linearGradient id="SVGID_15_" gradientUnits="userSpaceOnUse" x1="194.2031" y1="411.1431" x2="199.1812" y2="411.1431" gradientTransform="matrix(1 0 0 1 -112 -390.7812)">
			<stop  offset="0" style="stop-color:#AE951D"/>
			<stop  offset="1" style="stop-color:#D1AA09"/>
		</linearGradient>
		<path fill="url(#SVGID_15_)" d="M87.181,19.789c0,0-2.995,0.125-4.954-0.492l-0.024,1.596c0,0,2.134,0.705,4.96,0.498"/>
		
			<linearGradient id="SVGID_16_" gradientUnits="userSpaceOnUse" x1="189.5498" y1="409.7388" x2="194.625" y2="409.7388" gradientTransform="matrix(1 0 0 1 -112 -390.7812)">
			<stop  offset="0" style="stop-color:#F5F34B"/>
			<stop  offset="0.1018" style="stop-color:#F5F24E"/>
			<stop  offset="0.1805" style="stop-color:#F5F058"/>
			<stop  offset="0.2512" style="stop-color:#F5EB68"/>
			<stop  offset="0.27" style="stop-color:#F5EA6E"/>
			<stop  offset="0.2762" style="stop-color:#EDE059"/>
			<stop  offset="0.286" style="stop-color:#E3D33E"/>
			<stop  offset="0.2972" style="stop-color:#DBC828"/>
			<stop  offset="0.3104" style="stop-color:#D5C017"/>
			<stop  offset="0.3267" style="stop-color:#D0BA0C"/>
			<stop  offset="0.3495" style="stop-color:#CEB705"/>
			<stop  offset="0.4129" style="stop-color:#CDB603"/>
			<stop  offset="0.4216" style="stop-color:#CEB903"/>
			<stop  offset="0.4871" style="stop-color:#D2CA02"/>
			<stop  offset="0.5683" style="stop-color:#D5D501"/>
			<stop  offset="0.6826" style="stop-color:#D7DC00"/>
			<stop  offset="1" style="stop-color:#D7DE00"/>
		</linearGradient>
		<path fill="url(#SVGID_16_)" d="M82.625,19.348c0,0-1.85-0.291-4.788-2.382c0,0-0.589,0.396-0.081,1.621
			c0,0,1.704,1.646,4.868,2.361L82.625,19.348L82.625,19.348z"/>
		
			<linearGradient id="SVGID_17_" gradientUnits="userSpaceOnUse" x1="189.6362" y1="401.3442" x2="202.2363" y2="401.3442" gradientTransform="matrix(1 0 0 1 -112 -390.7812)">
			<stop  offset="0" style="stop-color:#004EAE"/>
			<stop  offset="1" style="stop-color:#0025AB"/>
		</linearGradient>
		<path fill="url(#SVGID_17_)" d="M89.755,10.798c0,0-7.622,1.382-11.049-2.159l-1.07,0.722c0,0,1.823,1.953,4.611,2.669
			c0,0,2.562,0.525,4.822,0.451c0,0,2.635-0.244,3.167-0.776L89.755,10.798z"/>
		
			<linearGradient id="SVGID_18_" gradientUnits="userSpaceOnUse" x1="199.2964" y1="403.7417" x2="202.668" y2="403.7417" gradientTransform="matrix(1 0 0 1 -112 -390.7812)">
			<stop  offset="0" style="stop-color:#EDEE00"/>
			<stop  offset="1" style="stop-color:#DAB300"/>
		</linearGradient>
		<path fill="url(#SVGID_18_)" d="M87.296,12.556c0,0,1.901-0.098,2.914-0.793c0,0,0.611,0.624,0.422,1.264
			c0,0-0.172,0.887-3.336,1.131V12.556z"/>
		
			<linearGradient id="SVGID_19_" gradientUnits="userSpaceOnUse" x1="194.2393" y1="403.9106" x2="199.2871" y2="403.9106" gradientTransform="matrix(1 0 0 1 -112 -390.7812)">
			<stop  offset="0" style="stop-color:#AE951D"/>
			<stop  offset="1" style="stop-color:#D1AA09"/>
		</linearGradient>
		<path fill="url(#SVGID_19_)" d="M87.287,12.556c0,0-3.037,0.126-5.023-0.492l-0.025,1.596c0,0,2.165,0.705,5.029,0.498"/>
		
			<linearGradient id="SVGID_20_" gradientUnits="userSpaceOnUse" x1="189.4561" y1="402.4331" x2="194.625" y2="402.4331" gradientTransform="matrix(1 0 0 1 -112 -390.7812)">
			<stop  offset="0" style="stop-color:#F5F34B"/>
			<stop  offset="0.1018" style="stop-color:#F5F24E"/>
			<stop  offset="0.1805" style="stop-color:#F5F058"/>
			<stop  offset="0.2512" style="stop-color:#F5EB68"/>
			<stop  offset="0.27" style="stop-color:#F5EA6E"/>
			<stop  offset="0.2762" style="stop-color:#EDE059"/>
			<stop  offset="0.286" style="stop-color:#E3D33E"/>
			<stop  offset="0.2972" style="stop-color:#DBC828"/>
			<stop  offset="0.3104" style="stop-color:#D5C017"/>
			<stop  offset="0.3267" style="stop-color:#D0BA0C"/>
			<stop  offset="0.3495" style="stop-color:#CEB705"/>
			<stop  offset="0.4129" style="stop-color:#CDB603"/>
			<stop  offset="0.4216" style="stop-color:#CEB903"/>
			<stop  offset="0.4871" style="stop-color:#D2CA02"/>
			<stop  offset="0.5683" style="stop-color:#D5D501"/>
			<stop  offset="0.6826" style="stop-color:#D7DC00"/>
			<stop  offset="1" style="stop-color:#D7DE00"/>
		</linearGradient>
		<path fill="url(#SVGID_20_)" d="M82.625,12.117c0,0-0.927-0.142-2.327-0.873c-0.721-0.377-1.587-0.949-2.6-1.658
			c0,0-0.533,0.545-0.018,1.77c0,0,1.78,1.646,4.944,2.363L82.625,12.117L82.625,12.117z"/>
		<path fill="#FCF2BB" stroke="#AB941E" stroke-width="0.25" stroke-miterlimit="10" d="M79.127,9.033l19.6-7.891
			c0,0-0.286,2.518,6.9,2.125l-15.872,7.531C89.755,10.798,82.901,12.25,79.127,9.033z"/>
		<path fill="#009AFC" d="M79.954,8.699c0,0,1.685,2.346,8.489,1.573l0.446-0.036l15.595-6.928l1.143-0.04l-15.872,7.565
			c0,0-7.143,1.401-10.628-1.803L79.954,8.699z"/>
	</g>
</g>
<g>
	<path fill="#FFFFFF" d="M3.65,42.147c1.004,1.429,2.308,2.491,3.912,3.188c1.603,0.697,3.429,1.047,5.478,1.047
		c1.275,0,2.473-0.158,3.593-0.477s2.096-0.761,2.927-1.332c0.831-0.572,1.487-1.262,1.971-2.068
		c0.482-0.811,0.724-1.723,0.724-2.736c0-1.174-0.299-2.143-0.898-2.902c-0.6-0.762-1.4-1.388-2.405-1.88
		c-1.005-0.491-2.136-0.911-3.391-1.26c-1.256-0.351-2.551-0.699-3.884-1.048c-1.333-0.35-2.628-0.745-3.883-1.189
		c-1.256-0.443-2.387-1.021-3.391-1.736c-1.005-0.715-1.807-1.608-2.405-2.688c-0.6-1.078-0.899-2.41-0.899-3.997
		c0-1.491,0.357-2.815,1.073-3.974c0.714-1.157,1.681-2.125,2.898-2.902c1.217-0.777,2.617-1.363,4.202-1.761
		c1.584-0.396,3.246-0.595,4.985-0.595c2.241,0,4.318,0.326,6.231,0.976s3.565,1.735,4.956,3.259l-3.304,1.951
		c-0.966-1.109-2.096-1.941-3.39-2.498c-1.295-0.555-2.832-0.832-4.608-0.832c-1.237,0-2.416,0.137-3.536,0.405
		c-1.121,0.269-2.097,0.665-2.927,1.188c-0.832,0.524-1.498,1.182-2,1.976c-0.502,0.793-0.753,1.729-0.753,2.808
		c0,1.682,0.521,2.973,1.565,3.879c1.044,0.903,2.348,1.616,3.913,2.141c1.564,0.521,3.265,0.982,5.101,1.379
		c1.834,0.396,3.536,0.928,5.101,1.595c1.564,0.665,2.869,1.595,3.912,2.783c1.044,1.188,1.565,2.831,1.565,4.925
		c0,1.521-0.348,2.871-1.043,4.044c-0.695,1.174-1.633,2.165-2.811,2.974c-1.18,0.811-2.542,1.42-4.086,1.832
		c-1.546,0.412-3.15,0.618-4.811,0.618c-2.705,0-5.198-0.389-7.478-1.165C3.574,47.298,1.624,45.988,0,44.148L3.65,42.147z"/>
	<path fill="#FFFFFF" d="M29.908,14.695h12.694c3.555,0,6.569,0.355,9.042,1.07c2.472,0.714,4.53,1.626,6.173,2.736
		c1.641,1.109,2.936,2.338,3.883,3.688c0.946,1.35,1.642,2.641,2.087,3.876c0.444,1.238,0.725,2.354,0.841,3.354
		s0.173,1.705,0.173,2.119c0,0.41-0.058,1.117-0.173,2.115c-0.116,0.999-0.396,2.117-0.841,3.354
		c-0.445,1.238-1.141,2.529-2.087,3.879c-0.947,1.349-2.242,2.576-3.883,3.688c-1.643,1.11-3.701,2.021-6.173,2.736
		c-2.473,0.713-5.487,1.07-9.042,1.07H29.908V14.695z M33.732,45.526h7.883c2.705,0,5.236-0.278,7.593-0.832
		c2.356-0.555,4.405-1.403,6.144-2.547c1.739-1.142,3.11-2.592,4.115-4.354c1.004-1.76,1.507-3.844,1.507-6.256
		c0-2.41-0.502-4.496-1.507-6.257c-1.005-1.76-2.376-3.212-4.115-4.354c-1.739-1.141-3.788-1.989-6.144-2.545
		c-2.357-0.555-4.889-0.832-7.593-0.832h-7.883V45.526L33.732,45.526z"/>
</g>
<g>
	<path fill="#FFFFFF" d="M124.94,42.147c1.004,1.429,2.308,2.491,3.912,3.188c1.603,0.697,3.429,1.047,5.478,1.047
		c1.275,0,2.473-0.158,3.594-0.477c1.12-0.316,2.096-0.761,2.927-1.332c0.831-0.572,1.487-1.262,1.971-2.068
		c0.482-0.811,0.724-1.723,0.724-2.736c0-1.174-0.3-2.143-0.898-2.902c-0.6-0.762-1.401-1.388-2.405-1.88
		c-1.005-0.491-2.135-0.911-3.391-1.26c-1.256-0.351-2.551-0.699-3.884-1.048c-1.333-0.35-2.628-0.745-3.883-1.189
		c-1.256-0.443-2.387-1.021-3.391-1.736c-1.005-0.715-1.806-1.608-2.405-2.688s-0.898-2.41-0.898-3.997
		c0-1.491,0.356-2.815,1.072-3.974c0.714-1.157,1.681-2.125,2.898-2.902c1.217-0.777,2.617-1.363,4.202-1.761
		c1.584-0.396,3.246-0.595,4.985-0.595c2.241,0,4.319,0.326,6.231,0.976c1.913,0.649,3.565,1.735,4.956,3.259l-3.304,1.951
		c-0.966-1.109-2.097-1.941-3.391-2.498c-1.295-0.555-2.831-0.832-4.608-0.832c-1.237,0-2.415,0.137-3.536,0.405
		s-2.096,0.665-2.927,1.188c-0.831,0.524-1.498,1.182-2,1.976c-0.502,0.793-0.753,1.729-0.753,2.808
		c0,1.682,0.521,2.973,1.565,3.879c1.043,0.903,2.347,1.616,3.913,2.141c1.564,0.521,3.265,0.982,5.101,1.379
		c1.835,0.396,3.536,0.928,5.101,1.595c1.565,0.665,2.869,1.595,3.913,2.783s1.565,2.831,1.565,4.925
		c0,1.521-0.348,2.871-1.043,4.044c-0.695,1.174-1.633,2.165-2.812,2.974c-1.179,0.811-2.541,1.42-4.085,1.832
		c-1.546,0.412-3.15,0.618-4.812,0.618c-2.705,0-5.197-0.389-7.477-1.165c-2.281-0.775-4.231-2.086-5.854-3.926L124.94,42.147z"/>
	<g>
		<path fill="#FFFFFF" d="M151.719,19.548h10.164c1.229,0,2.516,0.116,3.861,0.347c1.345,0.232,2.573,0.633,3.687,1.206
			c1.112,0.572,2.025,1.356,2.74,2.351c0.714,0.997,1.071,2.243,1.071,3.743c0,1.307-0.291,2.44-0.872,3.393
			c-0.582,0.956-1.362,1.739-2.342,2.352s-2.109,1.07-3.387,1.372c-1.279,0.299-2.616,0.448-4.011,0.448h-7.623V48.5h-3.289V19.548
			L151.719,19.548z M155.007,32.307h7.474c0.93,0,1.844-0.087,2.74-0.267c0.896-0.176,1.694-0.463,2.391-0.857
			c0.698-0.396,1.262-0.919,1.694-1.575c0.432-0.655,0.647-1.458,0.647-2.413c0-0.926-0.225-1.718-0.672-2.373
			s-1.029-1.192-1.744-1.615c-0.715-0.421-1.537-0.73-2.467-0.92c-0.93-0.19-1.86-0.287-2.79-0.287h-7.273V32.307L155.007,32.307z"
			/>
		<path fill="#FFFFFF" d="M174.289,34.026c0-2.209,0.448-4.24,1.345-6.094c0.897-1.855,2.143-3.457,3.738-4.807
			c1.594-1.35,3.512-2.405,5.754-3.169c2.241-0.764,4.709-1.145,7.398-1.145c2.69,0,5.156,0.381,7.398,1.145
			c2.242,0.765,4.159,1.82,5.754,3.169c1.596,1.35,2.841,2.952,3.737,4.807c0.896,1.854,1.346,3.885,1.346,6.094
			c0,2.208-0.447,4.246-1.346,6.113c-0.896,1.868-2.142,3.477-3.737,4.825c-1.595,1.349-3.512,2.4-5.754,3.149
			c-2.242,0.75-4.708,1.125-7.398,1.125c-2.691,0-5.157-0.375-7.398-1.125c-2.242-0.749-4.16-1.801-5.754-3.149
			c-1.595-1.349-2.84-2.957-3.738-4.825C174.736,38.272,174.289,36.234,174.289,34.026z M177.576,34.026
			c0,1.798,0.349,3.476,1.046,5.031c0.698,1.554,1.694,2.903,2.99,4.048c1.295,1.146,2.865,2.045,4.709,2.7
			c1.843,0.654,3.91,0.981,6.203,0.981c2.292,0,4.358-0.327,6.204-0.981c1.843-0.655,3.412-1.555,4.707-2.7
			c1.297-1.145,2.292-2.494,2.99-4.048c0.697-1.556,1.046-3.233,1.046-5.031c0-1.8-0.349-3.477-1.046-5.031
			c-0.698-1.554-1.693-2.903-2.99-4.049c-1.295-1.145-2.864-2.044-4.707-2.699c-1.845-0.653-3.912-0.981-6.204-0.981
			c-2.293,0-4.36,0.328-6.203,0.981c-1.844,0.655-3.413,1.554-4.709,2.699c-1.295,1.146-2.292,2.495-2.99,4.049
			C177.925,30.549,177.576,32.226,177.576,34.026z"/>
		<path fill="#FFFFFF" d="M222.217,22.002H210.16v-2.454h27.402v2.454h-12.057v26.502h-3.288L222.217,22.002L222.217,22.002z"/>
	</g>
</g>
<g>
	<path fill="#FFFFFF" d="M249.712,14.695h11.824c1.545,0,3.11,0.104,4.695,0.311c1.584,0.205,3.004,0.634,4.26,1.283
		c1.256,0.65,2.28,1.555,3.072,2.713c0.792,1.156,1.188,2.688,1.188,4.592c0,1.713-0.619,3.203-1.854,4.473
		c-1.236,1.27-3.072,2.109-5.507,2.521v0.095c1.353,0.096,2.588,0.356,3.709,0.784c1.121,0.429,2.087,1,2.897,1.714
		c0.812,0.714,1.439,1.563,1.885,2.546c0.443,0.982,0.666,2.062,0.666,3.234c0,1.936-0.455,3.514-1.361,4.733
		c-0.908,1.222-2.048,2.183-3.42,2.878c-1.372,0.699-2.86,1.176-4.463,1.43c-1.604,0.254-3.102,0.381-4.492,0.381h-13.1V14.695
		L249.712,14.695z M253.538,29.253h7.94c1.97,0,3.573-0.197,4.812-0.594c1.236-0.396,2.202-0.881,2.897-1.451
		c0.696-0.571,1.16-1.183,1.392-1.832s0.348-1.244,0.348-1.783c0-1.174-0.241-2.148-0.725-2.926
		c-0.484-0.778-1.13-1.396-1.941-1.855c-0.812-0.461-1.76-0.786-2.84-0.977c-1.082-0.189-2.224-0.285-3.42-0.285h-8.463V29.253
		L253.538,29.253z M253.538,45.526h8.752c2.239,0,4.047-0.222,5.418-0.666s2.426-0.999,3.159-1.666
		c0.733-0.666,1.226-1.37,1.478-2.116c0.252-0.744,0.378-1.42,0.378-2.021c0-1.237-0.29-2.301-0.87-3.188
		c-0.58-0.89-1.334-1.609-2.262-2.166c-0.926-0.555-1.98-0.959-3.158-1.213c-1.18-0.255-2.367-0.381-3.564-0.381h-9.332v13.417
		H253.538z"/>
	<g>
		<path fill="#FFFFFF" d="M279.214,33.53c0-2.156,0.438-4.139,1.312-5.948c0.877-1.812,2.093-3.375,3.648-4.692
			c1.558-1.318,3.43-2.348,5.618-3.094c2.189-0.747,4.597-1.118,7.224-1.118c2.625,0,5.033,0.372,7.222,1.118
			s4.062,1.776,5.618,3.094c1.556,1.317,2.771,2.881,3.647,4.692c0.876,1.81,1.313,3.792,1.313,5.948s-0.438,4.146-1.313,5.97
			s-2.092,3.393-3.647,4.709c-1.557,1.317-3.43,2.345-5.618,3.075c-2.188,0.732-4.597,1.099-7.222,1.099
			c-2.627,0-5.034-0.366-7.224-1.099c-2.188-0.73-4.061-1.758-5.618-3.075c-1.556-1.316-2.771-2.885-3.648-4.709
			C279.652,37.676,279.214,35.686,279.214,33.53z M282.426,33.53c0,1.757,0.339,3.394,1.021,4.913
			c0.682,1.517,1.654,2.834,2.918,3.951c1.265,1.118,2.797,1.997,4.598,2.636c1.8,0.64,3.818,0.959,6.057,0.959
			c2.236,0,4.255-0.319,6.054-0.959c1.8-0.639,3.333-1.518,4.597-2.636c1.267-1.117,2.238-2.435,2.92-3.951
			c0.681-1.52,1.021-3.156,1.021-4.913c0-1.758-0.341-3.394-1.021-4.911c-0.682-1.518-1.653-2.835-2.92-3.954
			c-1.264-1.118-2.797-1.996-4.597-2.636c-1.799-0.637-3.817-0.958-6.054-0.958c-2.238,0-4.257,0.32-6.057,0.958
			c-1.801,0.64-3.332,1.518-4.598,2.636c-1.264,1.119-2.236,2.436-2.918,3.954C282.765,30.136,282.426,31.773,282.426,33.53z"/>
		<path fill="#FFFFFF" d="M316.132,33.53c0-2.156,0.438-4.139,1.314-5.948c0.874-1.812,2.09-3.375,3.646-4.692
			c1.557-1.318,3.43-2.348,5.618-3.094s4.597-1.118,7.223-1.118s5.034,0.372,7.223,1.118s4.062,1.776,5.618,3.094
			c1.557,1.317,2.772,2.881,3.648,4.692c0.874,1.81,1.312,3.792,1.312,5.948s-0.438,4.146-1.312,5.97
			c-0.876,1.824-2.092,3.393-3.648,4.709c-1.557,1.317-3.43,2.345-5.618,3.075c-2.19,0.732-4.597,1.099-7.223,1.099
			c-2.627,0-5.035-0.366-7.223-1.099c-2.188-0.73-4.062-1.758-5.618-3.075c-1.557-1.316-2.772-2.885-3.646-4.709
			C316.569,37.676,316.132,35.686,316.132,33.53z M319.341,33.53c0,1.757,0.342,3.394,1.022,4.913
			c0.682,1.517,1.653,2.834,2.918,3.951c1.265,1.118,2.798,1.997,4.597,2.636c1.801,0.64,3.819,0.959,6.057,0.959
			s4.255-0.319,6.056-0.959c1.799-0.639,3.332-1.518,4.597-2.636c1.264-1.117,2.237-2.435,2.919-3.951
			c0.681-1.52,1.021-3.156,1.021-4.913c0-1.758-0.341-3.394-1.021-4.911c-0.682-1.518-1.654-2.835-2.919-3.954
			c-1.265-1.118-2.798-1.996-4.597-2.636c-1.801-0.637-3.818-0.958-6.056-0.958s-4.256,0.32-6.057,0.958
			c-1.799,0.64-3.332,1.518-4.597,2.636c-1.265,1.119-2.236,2.436-2.918,3.954C319.683,30.136,319.341,31.773,319.341,33.53z"/>
		<path fill="#FFFFFF" d="M355.286,19.396h3.211v12.456h0.292l16.684-12.456h4.427l-17.414,12.935l18.386,15.332h-4.619
			L358.789,33.05h-0.292v14.613h-3.211V19.396L355.286,19.396z"/>
	</g>
</g>
</svg>
