<?xml version="1.0" encoding="utf-8"?>
<!-- Generator: Adobe Illustrator 16.0.0, SVG Export Plug-In . SVG Version: 6.00 Build 0)  -->
<!DOCTYPE svg PUBLIC "-//W3C//DTD SVG 1.1//EN" "http://www.w3.org/Graphics/SVG/1.1/DTD/svg11.dtd">
<svg version="1.1" id="Layer_1" xmlns="http://www.w3.org/2000/svg" xmlns:xlink="http://www.w3.org/1999/xlink" x="0px" y="0px"
	 width="400.93px" height="56.562px" viewBox="20.283 280.925 400.93 56.562" enable-background="new 20.283 280.925 400.93 56.562"
	 xml:space="preserve">
<g id="placed_right" display="none">
	
		<image display="inline" overflow="visible" enable-background="new    " width="222" height="410" xlink:href="../../- Other/SD Spot Book/images/book.png"  transform="matrix(1 0 0 1 758.2832 -58.967)">
	</image>
</g>
<g id="placed" display="none">
	
		<image display="inline" overflow="visible" enable-background="new    " width="222" height="410" xlink:href="../../- Other/SD Spot Book/images/book.png"  transform="matrix(1 0 0 1 499.2827 -58.967)">
	</image>
</g>
<g id="black_bg" display="none">
	<rect x="-1.05" y="0.034" display="inline" width="2414" height="337"/>
</g>
<g id="art">
	<g>
		
			<linearGradient id="SVGID_1_" gradientUnits="userSpaceOnUse" x1="154.835" y1="-121.5232" x2="160.2456" y2="-121.5232" gradientTransform="matrix(1 0 0 -1 -56 192.4858)">
			<stop  offset="0" style="stop-color:#195A91"/>
			<stop  offset="0.3214" style="stop-color:#005CAF"/>
		</linearGradient>
		<polygon fill="url(#SVGID_1_)" points="104.246,293.715 103.536,336.512 100.464,335.289 99.082,334.028 98.835,333.119 
			99.305,291.903 99.289,291.506 103.2,292.914 		"/>
		
			<linearGradient id="SVGID_2_" gradientUnits="userSpaceOnUse" x1="159.1733" y1="-122.2175" x2="167.0386" y2="-122.2175" gradientTransform="matrix(1 0 0 -1 -56 192.4858)">
			<stop  offset="0" style="stop-color:#0035AD"/>
			<stop  offset="0.5306" style="stop-color:#004CAF"/>
			<stop  offset="1" style="stop-color:#172D75"/>
		</linearGradient>
		<polygon fill="url(#SVGID_2_)" points="103.83,293.828 103.173,336.74 108.394,336.74 110.492,336.132 110.757,335.346 
			111.039,292.667 107.106,293.409 		"/>
		
			<linearGradient id="SVGID_3_" gradientUnits="userSpaceOnUse" x1="171.7236" y1="-130.949" x2="181.5458" y2="-91.5894" gradientTransform="matrix(1 0 0 -1 -56 192.4858)">
			<stop  offset="0.2268" style="stop-color:#0030AC"/>
			<stop  offset="1" style="stop-color:#0067AE"/>
		</linearGradient>
		<polygon fill="url(#SVGID_3_)" points="110.95,291.903 110.665,336.725 128.118,324.429 128.683,283.35 		"/>
		
			<linearGradient id="SVGID_4_" gradientUnits="userSpaceOnUse" x1="161.0186" y1="-101.9573" x2="161.0186" y2="-97.2185" gradientTransform="matrix(1 0 0 -1 -56 192.4858)">
			<stop  offset="0" style="stop-color:#001BA7"/>
			<stop  offset="0.094" style="stop-color:#0029A8"/>
			<stop  offset="0.3144" style="stop-color:#0044AB"/>
			<stop  offset="0.5382" style="stop-color:#0058AD"/>
			<stop  offset="0.7651" style="stop-color:#0063AE"/>
			<stop  offset="1" style="stop-color:#0067AE"/>
		</linearGradient>
		<path fill="url(#SVGID_4_)" d="M99.131,289.705c0,0,2.558,2.075,5.115,2.535c0,0,2.958,0.904,6.607-0.282l0.054,1.71
			c0,0-2.292,1.437-7.098,0.4c0,0-2.652-0.69-4.506-1.994L99.131,289.705z"/>
		
			<linearGradient id="SVGID_5_" gradientUnits="userSpaceOnUse" x1="155.1309" y1="-92.8289" x2="175.2139" y2="-92.8289" gradientTransform="matrix(1 0 0 -1 -56 192.4858)">
			<stop  offset="0" style="stop-color:#004EAE"/>
			<stop  offset="1" style="stop-color:#0073AF"/>
		</linearGradient>
		<path fill="url(#SVGID_5_)" d="M99.131,289.705c0,0,0.085-0.96,0.386-1.226l18.59-7.555l1.107,0.188l-19.079,7.914L99.131,289.705
			z"/>
		<path fill="#0073AF" d="M119.004,282.05l0.44-0.219v1.049C119.444,282.88,119.162,282.511,119.004,282.05z"/>
		
			<linearGradient id="SVGID_6_" gradientUnits="userSpaceOnUse" x1="156.1646" y1="-92.7483" x2="175.4443" y2="-92.7483" gradientTransform="matrix(1 0 0 -1 -56 192.4858)">
			<stop  offset="0" style="stop-color:#0025AB"/>
			<stop  offset="1" style="stop-color:#0073AF"/>
		</linearGradient>
		<polygon fill="url(#SVGID_6_)" points="100.165,289.027 119.444,281.072 119.444,281.854 100.65,289.396 		"/>
		
			<linearGradient id="SVGID_7_" gradientUnits="userSpaceOnUse" x1="166.499" y1="-95.0583" x2="184.6831" y2="-95.0583" gradientTransform="matrix(1 0 0 -1 -56 192.4858)">
			<stop  offset="0" style="stop-color:#0025AB"/>
			<stop  offset="0.3151" style="stop-color:#0028AB"/>
			<stop  offset="0.5095" style="stop-color:#0030AC"/>
			<stop  offset="0.6711" style="stop-color:#003FAC"/>
			<stop  offset="0.8148" style="stop-color:#0053AD"/>
			<stop  offset="0.9454" style="stop-color:#006DAF"/>
			<stop  offset="0.9691" style="stop-color:#0073AF"/>
		</linearGradient>
		<polygon fill="url(#SVGID_7_)" points="110.499,291.052 110.95,291.903 128.683,283.35 127.082,283.185 		"/>
		<path fill="#001BA7" d="M98.814,326.335c0,0,0.011-0.069,0.133,0c0.47,0.267,1.686,1.028,1.814,1.092
			c0.548,0.271,1.249,0.716,2.393,0.991c1.006,0.242,2.276,0.6,4.647,0.45c0.896-0.056,1.756-0.217,2.791-0.634l-0.026,1.599
			c0,0-1.961,1.695-7.311,0.462c0,0-2.241-0.304-4.461-2.131L98.814,326.335z"/>
		
			<linearGradient id="SVGID_8_" gradientUnits="userSpaceOnUse" x1="164.0479" y1="-136.8933" x2="167.2397" y2="-136.8933" gradientTransform="matrix(1 0 0 -1 -56 192.4858)">
			<stop  offset="0" style="stop-color:#EDEE00"/>
			<stop  offset="1" style="stop-color:#DAB300"/>
		</linearGradient>
		<path fill="url(#SVGID_8_)" d="M108.048,329.022c0,0,1.733-0.134,2.67-0.788c0,0,0.784,0.63,0.43,1.23c0,0-0.251,0.83-3.1,1.06
			V329.022L108.048,329.022z"/>
		
			<linearGradient id="SVGID_9_" gradientUnits="userSpaceOnUse" x1="159.1323" y1="-137.0745" x2="163.8018" y2="-137.0745" gradientTransform="matrix(1 0 0 -1 -56 192.4858)">
			<stop  offset="0" style="stop-color:#AE951D"/>
			<stop  offset="1" style="stop-color:#D1AA09"/>
		</linearGradient>
		<path fill="url(#SVGID_9_)" d="M107.802,329.022c0,0-2.81,0.118-4.646-0.462l-0.023,1.496c0,0,2.002,0.662,4.652,0.468"/>
		
			<linearGradient id="SVGID_10_" gradientUnits="userSpaceOnUse" x1="154.5874" y1="-135.7097" x2="159.1553" y2="-135.7097" gradientTransform="matrix(1 0 0 -1 -56 192.4858)">
			<stop  offset="0" style="stop-color:#F5F34B"/>
			<stop  offset="0.1018" style="stop-color:#F5F24E"/>
			<stop  offset="0.1805" style="stop-color:#F5F058"/>
			<stop  offset="0.2512" style="stop-color:#F5EB68"/>
			<stop  offset="0.27" style="stop-color:#F5EA6E"/>
			<stop  offset="0.2762" style="stop-color:#EDE059"/>
			<stop  offset="0.286" style="stop-color:#E3D33E"/>
			<stop  offset="0.2972" style="stop-color:#DBC828"/>
			<stop  offset="0.3104" style="stop-color:#D5C017"/>
			<stop  offset="0.3267" style="stop-color:#D0BA0C"/>
			<stop  offset="0.3495" style="stop-color:#CEB705"/>
			<stop  offset="0.4129" style="stop-color:#CDB603"/>
			<stop  offset="0.4216" style="stop-color:#CEB903"/>
			<stop  offset="0.4871" style="stop-color:#D2CA02"/>
			<stop  offset="0.5683" style="stop-color:#D5D501"/>
			<stop  offset="0.6826" style="stop-color:#D7DC00"/>
			<stop  offset="1" style="stop-color:#D7DE00"/>
		</linearGradient>
		<path fill="url(#SVGID_10_)" d="M103.155,328.56c0,0-1.585-0.264-4.342-2.226c0,0-0.496,0.429-0.019,1.577
			c0,0,1.37,1.474,4.338,2.145L103.155,328.56z"/>
		<path fill="#001BA7" d="M98.581,332.991c0,0,2.84,2.947,8.395,2.825c0.662-0.015,1.104,0.002,1.796-0.148
			c0.463-0.101,1.145-0.327,1.681-0.497l0.071,1.315c0,0-2.109-0.105-7.409,0.241c0,0-2.119-0.073-4.516-1.946L98.581,332.991z"/>
		
			<linearGradient id="SVGID_11_" gradientUnits="userSpaceOnUse" x1="163.8804" y1="-143.824" x2="167.0825" y2="-143.824" gradientTransform="matrix(1 0 0 -1 -56 192.4858)">
			<stop  offset="0" style="stop-color:#EDEE00"/>
			<stop  offset="1" style="stop-color:#DAB300"/>
		</linearGradient>
		<path fill="url(#SVGID_11_)" d="M107.88,335.948c0,0,1.781-0.124,2.716-0.777c0,0,0.744,0.617,0.391,1.219
			c0,0-0.258,0.829-3.107,1.06V335.948L107.88,335.948z"/>
		
			<linearGradient id="SVGID_12_" gradientUnits="userSpaceOnUse" x1="159.3555" y1="-143.9998" x2="163.832" y2="-143.9998" gradientTransform="matrix(1 0 0 -1 -56 192.4858)">
			<stop  offset="0" style="stop-color:#AE951D"/>
			<stop  offset="1" style="stop-color:#D1AA09"/>
		</linearGradient>
		<path fill="url(#SVGID_12_)" d="M107.787,335.948c0,0-2.588,0.117-4.431-0.463v1.522c0,0,1.827,0.636,4.477,0.441"/>
		
			<linearGradient id="SVGID_13_" gradientUnits="userSpaceOnUse" x1="154.563" y1="-142.6311" x2="159.3555" y2="-142.6311" gradientTransform="matrix(1 0 0 -1 -56 192.4858)">
			<stop  offset="0" style="stop-color:#F5F34B"/>
			<stop  offset="0.1018" style="stop-color:#F5F24E"/>
			<stop  offset="0.1805" style="stop-color:#F5F058"/>
			<stop  offset="0.2512" style="stop-color:#F5EB68"/>
			<stop  offset="0.27" style="stop-color:#F5EA6E"/>
			<stop  offset="0.2762" style="stop-color:#EDE059"/>
			<stop  offset="0.286" style="stop-color:#E3D33E"/>
			<stop  offset="0.2972" style="stop-color:#DBC828"/>
			<stop  offset="0.3104" style="stop-color:#D5C017"/>
			<stop  offset="0.3267" style="stop-color:#D0BA0C"/>
			<stop  offset="0.3495" style="stop-color:#CEB705"/>
			<stop  offset="0.4129" style="stop-color:#CDB603"/>
			<stop  offset="0.4216" style="stop-color:#CEB903"/>
			<stop  offset="0.4871" style="stop-color:#D2CA02"/>
			<stop  offset="0.5683" style="stop-color:#D5D501"/>
			<stop  offset="0.6826" style="stop-color:#D7DC00"/>
			<stop  offset="1" style="stop-color:#D7DE00"/>
		</linearGradient>
		<path fill="url(#SVGID_13_)" d="M103.355,335.485c0,0-1.858-0.297-4.614-2.258c0,0-0.432,0.406,0.046,1.554
			c0,0,1.719,1.555,4.568,2.226V335.485z"/>
		<path fill="#001BA7" d="M99.25,296.755c0,0,3.334,2.577,7.151,2.577c0,0,2.395,0.17,4.506-0.664l-0.151,1.741
			c0,0-5.344,2.636-11.528-1.721L99.25,296.755z"/>
		
			<linearGradient id="SVGID_14_" gradientUnits="userSpaceOnUse" x1="164.3828" y1="-107.3611" x2="167.4341" y2="-107.3611" gradientTransform="matrix(1 0 0 -1 -56 192.4858)">
			<stop  offset="0" style="stop-color:#EDEE00"/>
			<stop  offset="1" style="stop-color:#DAB300"/>
		</linearGradient>
		<path fill="url(#SVGID_14_)" d="M108.383,299.486c0,0,1.754-0.125,2.691-0.779c0,0,0.498,0.619,0.323,1.22
			c0,0-0.165,0.831-3.014,1.061V299.486z"/>
		
			<linearGradient id="SVGID_15_" gradientUnits="userSpaceOnUse" x1="159.4146" y1="-107.5374" x2="164.0845" y2="-107.5374" gradientTransform="matrix(1 0 0 -1 -56 192.4858)">
			<stop  offset="0" style="stop-color:#AE951D"/>
			<stop  offset="1" style="stop-color:#D1AA09"/>
		</linearGradient>
		<path fill="url(#SVGID_15_)" d="M108.084,299.486c0,0-2.81,0.118-4.647-0.463l-0.023,1.496c0,0,2.002,0.662,4.652,0.468"/>
		
			<linearGradient id="SVGID_16_" gradientUnits="userSpaceOnUse" x1="155.1992" y1="-106.2205" x2="160.0254" y2="-106.2205" gradientTransform="matrix(1 0 0 -1 -56 192.4858)">
			<stop  offset="0" style="stop-color:#F5F34B"/>
			<stop  offset="0.1018" style="stop-color:#F5F24E"/>
			<stop  offset="0.1805" style="stop-color:#F5F058"/>
			<stop  offset="0.2512" style="stop-color:#F5EB68"/>
			<stop  offset="0.27" style="stop-color:#F5EA6E"/>
			<stop  offset="0.2762" style="stop-color:#EDE059"/>
			<stop  offset="0.286" style="stop-color:#E3D33E"/>
			<stop  offset="0.2972" style="stop-color:#DBC828"/>
			<stop  offset="0.3104" style="stop-color:#D5C017"/>
			<stop  offset="0.3267" style="stop-color:#D0BA0C"/>
			<stop  offset="0.3495" style="stop-color:#CEB705"/>
			<stop  offset="0.4129" style="stop-color:#CDB603"/>
			<stop  offset="0.4216" style="stop-color:#CEB903"/>
			<stop  offset="0.4871" style="stop-color:#D2CA02"/>
			<stop  offset="0.5683" style="stop-color:#D5D501"/>
			<stop  offset="0.6826" style="stop-color:#D7DC00"/>
			<stop  offset="1" style="stop-color:#D7DE00"/>
		</linearGradient>
		<path fill="url(#SVGID_16_)" d="M104.025,299.072c0,0-1.842-0.272-4.598-2.234c0,0-0.499,0.373-0.022,1.521
			c0,0,1.603,1.544,4.62,2.216V299.072z"/>
		
			<linearGradient id="SVGID_17_" gradientUnits="userSpaceOnUse" x1="155.1309" y1="-98.3469" x2="166.9502" y2="-98.3469" gradientTransform="matrix(1 0 0 -1 -56 192.4858)">
			<stop  offset="0" style="stop-color:#004EAE"/>
			<stop  offset="1" style="stop-color:#0025AB"/>
		</linearGradient>
		<path fill="url(#SVGID_17_)" d="M110.499,291.052c0,0-7.148,1.296-10.364-2.025l-1.004,0.678c0,0,1.711,1.831,4.326,2.503
			c0,0,2.402,0.493,4.522,0.424c0,0,2.472-0.229,2.971-0.729L110.499,291.052z"/>
		
			<linearGradient id="SVGID_18_" gradientUnits="userSpaceOnUse" x1="164.3828" y1="-100.595" x2="167.4966" y2="-100.595" gradientTransform="matrix(1 0 0 -1 -56 192.4858)">
			<stop  offset="0" style="stop-color:#EDEE00"/>
			<stop  offset="1" style="stop-color:#DAB300"/>
		</linearGradient>
		<path fill="url(#SVGID_18_)" d="M108.383,292.702c0,0,1.688-0.091,2.637-0.744c0,0,0.622,0.585,0.445,1.186
			c0,0-0.233,0.831-3.082,1.061V292.702z"/>
		
			<linearGradient id="SVGID_19_" gradientUnits="userSpaceOnUse" x1="159.4492" y1="-100.7542" x2="164.1841" y2="-100.7542" gradientTransform="matrix(1 0 0 -1 -56 192.4858)">
			<stop  offset="0" style="stop-color:#AE951D"/>
			<stop  offset="1" style="stop-color:#D1AA09"/>
		</linearGradient>
		<path fill="url(#SVGID_19_)" d="M108.184,292.702c0,0-2.849,0.118-4.711-0.462l-0.024,1.496c0,0,2.03,0.662,4.717,0.468"/>
		
			<linearGradient id="SVGID_20_" gradientUnits="userSpaceOnUse" x1="155.0752" y1="-99.3669" x2="160.0254" y2="-99.3669" gradientTransform="matrix(1 0 0 -1 -56 192.4858)">
			<stop  offset="0" style="stop-color:#F5F34B"/>
			<stop  offset="0.1018" style="stop-color:#F5F24E"/>
			<stop  offset="0.1805" style="stop-color:#F5F058"/>
			<stop  offset="0.2512" style="stop-color:#F5EB68"/>
			<stop  offset="0.27" style="stop-color:#F5EA6E"/>
			<stop  offset="0.2762" style="stop-color:#EDE059"/>
			<stop  offset="0.286" style="stop-color:#E3D33E"/>
			<stop  offset="0.2972" style="stop-color:#DBC828"/>
			<stop  offset="0.3104" style="stop-color:#D5C017"/>
			<stop  offset="0.3267" style="stop-color:#D0BA0C"/>
			<stop  offset="0.3495" style="stop-color:#CEB705"/>
			<stop  offset="0.4129" style="stop-color:#CDB603"/>
			<stop  offset="0.4216" style="stop-color:#CEB903"/>
			<stop  offset="0.4871" style="stop-color:#D2CA02"/>
			<stop  offset="0.5683" style="stop-color:#D5D501"/>
			<stop  offset="0.6826" style="stop-color:#D7DC00"/>
			<stop  offset="1" style="stop-color:#D7DE00"/>
		</linearGradient>
		<path fill="url(#SVGID_20_)" d="M104.025,292.289c0,0-0.977-0.131-2.29-0.818c-0.676-0.353-1.542-0.89-2.491-1.556
			c0,0-0.42,0.512,0.063,1.66c0,0,1.701,1.545,4.718,2.216V292.289L104.025,292.289z"/>
		<path fill="#FCF2BB" stroke="#AB941E" stroke-width="0.25" stroke-miterlimit="10" d="M100.53,289.396l18.383-7.399
			c0,0-0.268,2.361,6.473,1.993l-14.887,7.062C110.499,291.052,104.07,292.415,100.53,289.396z"/>
		<path fill="#009AFC" d="M101.306,289.084c0,0,1.581,2.2,7.963,1.476l0.419-0.033l14.627-6.498l1.072-0.038l-14.887,7.099
			c0,0-6.7,1.313-9.968-1.692L101.306,289.084z"/>
	</g>
</g>
<g id="text">
	<g>
		<g>
			<path fill="#FFFFFF" d="M48.557,316.289c0,1.41-0.375,2.67-1.127,3.781s-1.826,2.052-3.22,2.822
				c-1.395,0.77-3.095,1.354-5.099,1.754c-2.005,0.399-4.26,0.6-6.766,0.6c-2.419,0-4.68-0.127-6.782-0.382
				c-2.103-0.254-3.863-0.628-5.279-1.122v-3.879c0.741,0.233,1.585,0.462,2.533,0.687c0.948,0.226,1.945,0.425,2.991,0.6
				c1.046,0.174,2.125,0.316,3.236,0.425c1.112,0.108,2.211,0.164,3.301,0.164c3.486,0,6.063-0.437,7.73-1.309
				c1.667-0.871,2.501-2.12,2.501-3.747c0-0.785-0.159-1.467-0.474-2.049c-0.316-0.581-0.872-1.115-1.667-1.602
				c-0.796-0.486-1.858-0.959-3.187-1.417c-1.33-0.457-3.007-0.955-5.034-1.492c-1.939-0.508-3.623-1.064-5.05-1.667
				c-1.428-0.603-2.604-1.282-3.53-2.037c-0.927-0.755-1.613-1.612-2.06-2.571c-0.447-0.959-0.669-2.049-0.669-3.269
				c0-1.278,0.348-2.419,1.045-3.421c0.697-1.003,1.678-1.849,2.942-2.539c1.263-0.69,2.772-1.217,4.527-1.58
				c1.753-0.363,3.688-0.545,5.802-0.545c2.593,0,4.924,0.164,6.995,0.49c2.07,0.327,3.911,0.745,5.524,1.253l-2.19,3.399
				c-1.417-0.421-3.023-0.787-4.821-1.1s-3.656-0.469-5.573-0.469c-2.659,0-4.718,0.411-6.178,1.231
				c-1.46,0.82-2.19,1.928-2.19,3.322c0,0.828,0.163,1.544,0.49,2.146c0.327,0.604,0.871,1.148,1.634,1.635
				c0.763,0.486,1.771,0.944,3.023,1.372c1.253,0.43,2.794,0.883,4.625,1.362c1.982,0.523,3.721,1.061,5.214,1.612
				c1.492,0.553,2.74,1.177,3.742,1.874s1.759,1.504,2.272,2.419C48.3,313.958,48.557,315.041,48.557,316.289z"/>
			<path fill="#FFFFFF" d="M88.316,308.575c0,2.688-0.523,5.045-1.569,7.071c-1.046,2.027-2.561,3.719-4.543,5.077
				c-1.983,1.359-4.418,2.38-7.306,3.062c-2.888,0.684-6.161,1.024-9.822,1.024H53.113v-31.858h13.304
				c3.334,0,6.352,0.334,9.054,1.002c2.702,0.669,5.001,1.66,6.897,2.975c1.896,1.315,3.361,2.945,4.396,4.893
				C87.798,303.767,88.316,306.019,88.316,308.575z M81.877,308.707c0-2.121-0.359-3.956-1.079-5.502
				c-0.719-1.548-1.765-2.823-3.138-3.824c-1.373-1.003-3.062-1.747-5.066-2.234c-2.005-0.486-4.282-0.729-6.832-0.729h-6.57v24.906
				h5.295c5.753,0,10.089-1.06,13.009-3.181C80.417,316.02,81.877,312.876,81.877,308.707z"/>
		</g>
	</g>
	<g>
		<g>
			<path fill="#FFFFFF" d="M170.558,316.289c0,1.41-0.375,2.67-1.127,3.781s-1.826,2.052-3.22,2.822
				c-1.395,0.77-3.095,1.354-5.099,1.754c-2.005,0.399-4.261,0.6-6.766,0.6c-2.419,0-4.68-0.127-6.783-0.382
				c-2.103-0.254-3.863-0.628-5.279-1.122v-3.879c0.74,0.233,1.585,0.462,2.533,0.687c0.948,0.226,1.945,0.425,2.991,0.6
				c1.046,0.174,2.125,0.316,3.236,0.425s2.211,0.164,3.302,0.164c3.486,0,6.063-0.437,7.73-1.309c1.667-0.871,2.5-2.12,2.5-3.747
				c0-0.785-0.159-1.467-0.474-2.049c-0.316-0.581-0.872-1.115-1.667-1.602s-1.858-0.959-3.187-1.417
				c-1.33-0.457-3.007-0.955-5.034-1.492c-1.94-0.508-3.624-1.064-5.05-1.667c-1.428-0.603-2.604-1.282-3.53-2.037
				s-1.613-1.612-2.059-2.571c-0.447-0.959-0.67-2.049-0.67-3.269c0-1.278,0.348-2.419,1.046-3.421
				c0.697-1.003,1.678-1.849,2.942-2.539c1.264-0.69,2.772-1.217,4.527-1.58c1.754-0.363,3.688-0.545,5.802-0.545
				c2.593,0,4.925,0.164,6.995,0.49c2.07,0.327,3.911,0.745,5.524,1.253l-2.19,3.399c-1.417-0.421-3.024-0.787-4.821-1.1
				c-1.798-0.312-3.656-0.469-5.573-0.469c-2.659,0-4.718,0.411-6.177,1.231c-1.46,0.82-2.19,1.928-2.19,3.322
				c0,0.828,0.164,1.544,0.491,2.146c0.327,0.604,0.871,1.148,1.634,1.635c0.762,0.486,1.77,0.944,3.023,1.372
				c1.253,0.43,2.794,0.883,4.625,1.362c1.983,0.523,3.721,1.061,5.213,1.612c1.492,0.553,2.74,1.177,3.743,1.874
				c1.002,0.697,1.759,1.504,2.271,2.419C170.302,313.958,170.558,315.041,170.558,316.289z"/>
			<path fill="#FFFFFF" d="M198.96,305.348c0,1.142-0.259,2.239-0.776,3.293c-0.518,1.054-1.37,1.986-2.555,2.796
				c-1.186,0.809-2.753,1.455-4.701,1.938c-1.948,0.482-4.353,0.724-7.213,0.724h-4.235v10.71h-5.251v-27.517h10.22
				c2.522,0,4.696,0.178,6.522,0.536c1.826,0.357,3.332,0.879,4.517,1.562c1.186,0.685,2.061,1.528,2.625,2.531
				C198.678,302.927,198.96,304.068,198.96,305.348z M179.479,311.126h3.642c1.75,0,3.279-0.1,4.588-0.301
				c1.308-0.2,2.391-0.523,3.247-0.97c0.856-0.444,1.5-1.021,1.934-1.731c0.433-0.708,0.649-1.571,0.649-2.588
				c0-1.781-0.772-3.103-2.315-3.962c-1.543-0.859-3.953-1.289-7.228-1.289h-4.518V311.126L179.479,311.126z"/>
			<path fill="#FFFFFF" d="M236.917,311.013c0,2.121-0.381,4.054-1.144,5.797c-0.762,1.744-1.896,3.237-3.402,4.479
				c-1.506,1.242-3.374,2.202-5.604,2.881c-2.23,0.677-4.805,1.016-7.722,1.016c-3.068,0-5.727-0.339-7.976-1.016
				c-2.25-0.679-4.113-1.639-5.59-2.881c-1.478-1.242-2.574-2.738-3.289-4.488c-0.715-1.751-1.073-3.692-1.073-5.826
				c0-2.133,0.357-4.067,1.073-5.807c0.715-1.737,1.816-3.221,3.303-4.451c1.487-1.229,3.36-2.181,5.618-2.852
				c2.259-0.671,4.922-1.007,7.99-1.007c2.917,0,5.482,0.336,7.694,1.007c2.211,0.671,4.069,1.625,5.576,2.861
				c1.506,1.236,2.64,2.723,3.402,4.46C236.535,306.927,236.917,308.867,236.917,311.013z M206.679,311.013
				c0,1.72,0.245,3.266,0.734,4.639c0.489,1.375,1.237,2.542,2.244,3.502s2.287,1.693,3.84,2.202
				c1.553,0.508,3.402,0.763,5.548,0.763c2.146,0,3.995-0.255,5.548-0.763s2.833-1.242,3.84-2.202
				c1.006-0.96,1.745-2.127,2.216-3.502c0.471-1.373,0.706-2.919,0.706-4.639c0-1.731-0.235-3.281-0.706-4.649
				c-0.471-1.367-1.204-2.524-2.202-3.473c-0.998-0.947-2.269-1.675-3.811-2.184c-1.544-0.507-3.388-0.762-5.534-0.762
				c-2.146,0-4,0.255-5.562,0.762c-1.562,0.509-2.852,1.236-3.868,2.184c-1.017,0.947-1.77,2.105-2.259,3.473
				C206.924,307.732,206.679,309.282,206.679,311.013z"/>
			<path fill="#FFFFFF" d="M252.089,324.81h-5.28v-24.432h-11.801v-3.086h28.854v3.086h-11.773V324.81z"/>
		</g>
	</g>
	<g>
		<g>
			<path fill="#FFFFFF" d="M280.523,292.952h13.042c2.789,0,5.246,0.142,7.371,0.425c2.125,0.283,3.9,0.741,5.328,1.372
				c1.427,0.633,2.5,1.461,3.219,2.485c0.719,1.023,1.079,2.284,1.079,3.78c0,0.9-0.212,1.743-0.637,2.528
				c-0.425,0.784-1.041,1.474-1.847,2.069c-0.807,0.597-1.804,1.094-2.991,1.492c-1.188,0.4-2.533,0.665-4.037,0.796v0.218
				c1.503,0.175,2.915,0.425,4.233,0.752c1.318,0.326,2.468,0.777,3.448,1.351c0.981,0.574,1.754,1.297,2.321,2.169
				c0.566,0.871,0.85,1.932,0.85,3.181c0,1.453-0.354,2.75-1.062,3.89c-0.708,1.142-1.732,2.107-3.073,2.898
				c-1.34,0.792-2.969,1.398-4.886,1.819c-1.918,0.422-4.086,0.633-6.505,0.633h-15.853V292.952L280.523,292.952z M286.603,306.462
				h7.975c1.831,0,3.367-0.108,4.609-0.326c1.242-0.219,2.244-0.541,3.007-0.971c0.763-0.428,1.313-0.966,1.651-1.612
				c0.338-0.646,0.506-1.398,0.506-2.255c0-1.743-0.839-2.992-2.517-3.748c-1.678-0.756-4.326-1.133-7.943-1.133h-7.289
				L286.603,306.462L286.603,306.462z M286.603,309.862v11.505h8.694c1.917,0,3.524-0.145,4.821-0.437
				c1.296-0.29,2.342-0.696,3.138-1.22s1.367-1.151,1.716-1.885c0.348-0.733,0.522-1.544,0.522-2.43
				c0-0.814-0.179-1.562-0.539-2.245c-0.359-0.683-0.948-1.268-1.765-1.754c-0.817-0.486-1.902-0.864-3.252-1.133
				c-1.352-0.269-3.029-0.403-5.034-0.403L286.603,309.862L286.603,309.862z"/>
			<path fill="#FFFFFF" d="M349.903,311.013c0,2.121-0.381,4.054-1.143,5.797c-0.763,1.744-1.897,3.237-3.402,4.479
				c-1.506,1.242-3.374,2.202-5.604,2.881c-2.23,0.677-4.805,1.016-7.721,1.016c-3.068,0-5.728-0.339-7.976-1.016
				c-2.25-0.679-4.113-1.639-5.59-2.881s-2.574-2.738-3.289-4.488c-0.715-1.751-1.073-3.692-1.073-5.826
				c0-2.133,0.358-4.067,1.073-5.807c0.715-1.737,1.816-3.221,3.303-4.451c1.487-1.229,3.36-2.181,5.618-2.852
				c2.259-0.671,4.922-1.006,7.99-1.006c2.917,0,5.481,0.335,7.693,1.006c2.211,0.671,4.07,1.626,5.576,2.861
				c1.505,1.236,2.64,2.724,3.402,4.46C349.522,306.927,349.903,308.867,349.903,311.013z M319.666,311.013
				c0,1.72,0.245,3.266,0.734,4.639c0.489,1.375,1.237,2.542,2.245,3.502c1.006,0.96,2.287,1.693,3.84,2.202
				c1.552,0.508,3.402,0.763,5.548,0.763c2.145,0,3.995-0.255,5.547-0.763s2.833-1.242,3.839-2.202
				c1.007-0.96,1.746-2.127,2.217-3.502c0.47-1.373,0.706-2.919,0.706-4.639c0-1.731-0.235-3.281-0.706-4.649
				c-0.471-1.367-1.205-2.524-2.203-3.473c-0.998-0.947-2.268-1.675-3.811-2.184c-1.544-0.507-3.388-0.762-5.534-0.762
				c-2.146,0-4,0.255-5.562,0.762c-1.562,0.509-2.851,1.236-3.868,2.184s-1.77,2.105-2.259,3.473
				C319.91,307.732,319.666,309.282,319.666,311.013z"/>
			<path fill="#FFFFFF" d="M388.48,311.013c0,2.121-0.381,4.054-1.144,5.797c-0.762,1.744-1.896,3.237-3.402,4.479
				s-3.374,2.202-5.604,2.881c-2.23,0.677-4.805,1.016-7.722,1.016c-3.068,0-5.727-0.339-7.976-1.016
				c-2.25-0.679-4.113-1.639-5.59-2.881c-1.478-1.242-2.574-2.738-3.289-4.488c-0.716-1.751-1.073-3.692-1.073-5.826
				c0-2.133,0.357-4.067,1.073-5.807c0.715-1.737,1.816-3.221,3.303-4.451c1.486-1.229,3.359-2.181,5.618-2.852
				c2.259-0.671,4.922-1.006,7.99-1.006c2.917,0,5.481,0.335,7.693,1.006c2.211,0.671,4.07,1.626,5.576,2.861
				c1.505,1.236,2.64,2.724,3.402,4.46C388.099,306.927,388.48,308.867,388.48,311.013z M358.243,311.013
				c0,1.72,0.244,3.266,0.734,4.639c0.489,1.375,1.237,2.542,2.244,3.502s2.287,1.693,3.84,2.202
				c1.553,0.508,3.402,0.763,5.548,0.763c2.146,0,3.995-0.255,5.548-0.763s2.833-1.242,3.84-2.202
				c1.007-0.96,1.746-2.127,2.216-3.502c0.471-1.373,0.706-2.919,0.706-4.639c0-1.731-0.235-3.281-0.706-4.649
				c-0.471-1.367-1.205-2.524-2.203-3.473c-0.998-0.947-2.268-1.675-3.812-2.184c-1.543-0.507-3.388-0.762-5.533-0.762
				c-2.146,0-4,0.255-5.562,0.762c-1.562,0.509-2.852,1.236-3.868,2.184c-1.017,0.947-1.77,2.105-2.259,3.473
				C358.487,307.732,358.243,309.282,358.243,311.013z"/>
			<path fill="#FFFFFF" d="M421.213,324.81h-5.957l-12.733-13.139l-3.924,2.146v10.993h-5.251v-27.518h5.251v13.758l3.417-3.161
				l12.761-10.597h5.901l-14.681,11.989L421.213,324.81z"/>
		</g>
	</g>
</g>
</svg>
